<!DOCTYPE svg PUBLIC "-//W3C//DTD SVG 1.1//EN" "http://www.w3.org/Graphics/SVG/1.1/DTD/svg11.dtd">

<!-- Uploaded to: SVG Repo, www.svgrepo.com, Transformed by: SVG Repo Mixer Tools -->
<svg fill="#000" version="1.1" id="Capa_1" xmlns="http://www.w3.org/2000/svg" xmlns:xlink="http://www.w3.org/1999/xlink" width="64px" height="64px" viewBox="0 0 93.936 93.936" xml:space="preserve" stroke="#000">

<g id="SVGRepo_bgCarrier" stroke-width="0"/>

<g id="SVGRepo_tracerCarrier" stroke-linecap="round" stroke-linejoin="round"/>

<g id="SVGRepo_iconCarrier"> <g> <path d="M80.179,13.758c-18.342-18.342-48.08-18.342-66.422,0c-18.342,18.341-18.342,48.08,0,66.421 c18.342,18.342,48.08,18.342,66.422,0C98.521,61.837,98.521,32.099,80.179,13.758z M55.373,85.012H38.699V32.77h16.674V85.012z M54.224,24.114c-1.841,1.904-4.495,2.954-7.471,2.954c-5.479,0-9.61-4.191-9.61-9.751c0-5.64,4.254-9.893,9.895-9.893 c5.65,0,9.752,4.161,9.752,9.893C56.875,19.875,55.965,22.314,54.224,24.114z"/> </g> </g>

</svg>